<svg xmlns="http://www.w3.org/2000/svg" width="100%" height="100%" viewBox="0 0 20 25">
  <path id="Path_2" data-name="Path 2" d="M321.894,390.016a3.8,3.8,0,0,1,2.971,1.426,5.357,5.357,0,0,1,1.235,3.581,5.258,5.258,0,0,1-1.235,3.512,3.781,3.781,0,0,1-5.971,0l-.324-.417-4.118,3.373.088,1.008-.147,1.321,4.147,3.129.353-.487a3.781,3.781,0,0,1,5.971,0,5.709,5.709,0,0,1,0,7.093,3.781,3.781,0,0,1-5.971,0,5.388,5.388,0,0,1-1.206-3.547l.059-.73-4.412-3.3-.059.07a3.781,3.781,0,0,1-5.971,0,5.818,5.818,0,0,1,0-7.093,3.782,3.782,0,0,1,5.971,0l.235.278,4.235-3.408-.059-.8a5.439,5.439,0,0,1,1.206-3.581,3.829,3.829,0,0,1,3-1.426" transform="translate(-306.1 -390.016)"/>
</svg>
